<?xml version="1.0" encoding="UTF-8"?>
<!DOCTYPE svg PUBLIC "-//W3C//DTD SVG 1.1//EN" "http://www.w3.org/Graphics/SVG/1.1/DTD/svg11.dtd">
<!-- Creator: CorelDRAW 2020 (64-Bit) -->
<svg xmlns="http://www.w3.org/2000/svg" xml:space="preserve" width="151.28mm" height="156.395mm" version="1.1" style="shape-rendering:geometricPrecision; text-rendering:geometricPrecision; image-rendering:optimizeQuality; fill-rule:evenodd; clip-rule:evenodd"
viewBox="0 0 3349.92 3463.18"
 xmlns:xlink="http://www.w3.org/1999/xlink"
 xmlns:xodm="http://www.corel.com/coreldraw/odm/2003">
 <defs>
  <style type="text/css">
   <![CDATA[
    .str0 {stroke:#000066;stroke-width:4.43;stroke-miterlimit:22.9256}
    .fil1 {fill:#000066}
    .fil0 {fill:#000066;fill-rule:nonzero}
    .fil3 {fill:#71B0FF;fill-rule:nonzero}
    .fil2 {fill:white;fill-rule:nonzero}
   ]]>
  </style>
 </defs>
 <g id="Capa_x0020_1">
  <metadata id="CorelCorpID_0Corel-Layer"/>
  <g id="_1496235176752">
   <path class="fil0" d="M1238.3 2731.6l-183.14 0 0 -263.12c0,-21.32 -3.35,-39.34 -10.06,-54.43 -9.73,-21.14 -24.56,-31.8 -44.67,-31.8 -12.77,0 -22.5,0 -29.19,0 -21.21,3.77 -37.33,14.41 -48.34,32.12 -11,17.55 -16.43,38.36 -16.43,62.3l0 126.56 48.34 0 0 128.36 -183.32 0 0 -252.3c0,-25.73 -3.03,-45.91 -9.1,-60.32 -8.45,-20.65 -22.81,-32.95 -42.91,-36.72 -3.66,0 -7.65,-0.16 -12.29,-0.5 -4.46,-0.33 -9.26,-0.15 -14.03,0.5 -22.01,2.46 -38.45,12.95 -49.31,31.31 -11,18.52 -16.43,41.48 -16.43,68.86l0 120.82 49.29 0 0 128.36 -230.69 0 0 -128.36 47.37 0 0 -215.4 -47.37 0 0 -128.37 168.63 0 0 63.78c17.71,-25.58 36.86,-44.59 57.92,-57.21 20.89,-12.46 42.75,-18.7 65.25,-18.7 26.01,0 51.37,8.2 75.62,24.77 24.25,16.54 44.67,39.18 61.1,67.86 16.44,-29.52 37.81,-52.46 64.3,-68.53 26.49,-16.05 54.88,-24.1 85.19,-24.1 47.39,0 89.68,18.54 126.84,55.42 12.13,18.18 21.37,38.51 27.76,60.98 6.38,22.62 9.57,45.73 9.57,69.51l0 170 50.1 0 0 128.36z"/>
   <path class="fil0" d="M1870.02 2499.99c0,67.66 -23.81,124.32 -71.43,169.97 -47.62,45.84 -103.13,68.67 -166.33,68.67 -24.14,0 -48.81,-4.22 -74,-12.51 -25,-8.45 -48.63,-19.96 -70.9,-34.83l0 77.3 52.92 0 0 134.29 -247.68 0 0 -134.29 50.86 0 0 -386.47 -50.86 0 0 -132.43 194.76 0 0 57.01c35.28,-40.6 80.32,-60.9 134.96,-60.9 68.52,0 127.62,27.07 177.29,81.19 46.94,51.58 70.41,109.25 70.41,173.02zm-171.28 60.89c14.9,-19.12 22.43,-41.61 22.43,-67.32 0,-37.05 -15.07,-66.97 -45.05,-89.29 -19.53,-14.72 -42.31,-22.16 -68.36,-22.16 -37.85,0 -68.17,14.71 -91.12,44.31 -14.9,19.12 -22.43,41.27 -22.43,66.3 0,37.21 15.07,66.98 45.05,89.47 20.9,15.39 44.03,23 69.38,23 37.17,0 67.14,-14.71 90.1,-44.31z"/>
   <polygon class="fil0" points="2168.07,2741.93 1902.74,2741.93 1902.74,2596.02 1960.57,2596.02 1960.57,2178.59 1905.81,2178.59 1905.81,2032.69 2114.39,2032.69 2114.39,2596.02 2168.07,2596.02 "/>
   <path class="fil0" d="M2833.29 2729.78l-209.66 0 0 -40.3c-21.33,18.02 -43.92,31.29 -67.96,39.81 -24.04,8.36 -49.89,12.62 -77.36,12.62 -39.04,0 -77.35,-9.17 -114.77,-27.7 -37.41,-18.35 -69.23,-43.75 -95.25,-76.21 -15.9,-20.64 -27.48,-42.61 -35.06,-66.05 -7.58,-23.42 -11.39,-47.36 -11.39,-71.61 0,-70.63 26.76,-130.79 80.43,-180.77 22.59,-22.45 51.69,-40.48 86.94,-54.24 35.42,-13.77 69.94,-20.65 103.56,-20.65 17.17,0 33.98,2.46 50.43,7.54 30.9,10.48 57.83,27.7 80.43,51.46l0 -45.9 209.66 0 0 128.32 -54.77 0 0 215.35 54.77 0 0 128.32zm-209.66 -235.99c0,-29.66 -12.48,-55.07 -37.23,-76.05 -24.76,-21.14 -54.4,-31.63 -88.75,-31.63 -33.07,0 -61.27,11.14 -84.76,33.44 -23.33,22.28 -35.06,48.84 -35.06,79.81 0,30.33 12.47,55.72 37.23,76.05 24.76,20.49 54.4,30.64 88.74,30.64 33.08,0 61.29,-11.14 84.77,-33.42 23.31,-22.29 35.06,-48.51 35.06,-78.83z"/>
   <path class="fil0" d="M3305.21 2651.93c-17.89,31.29 -41.92,54.08 -72.28,68.5 -30.19,14.26 -65.07,21.47 -104.29,21.47 -22.78,0 -48.44,-3.12 -77.54,-9.34l-52.59 -29.01 0 29.01 -115.68 0 0 -136.68 155.98 0c4.88,12.44 11.75,22.79 20.78,30.8 11.56,11.3 25.12,16.88 40.13,16.88 4.88,0 8.67,-0.33 11.39,-0.98 17.89,-3.77 29.28,-12.15 34.15,-25.24 2.71,-8.2 1.81,-15.9 -2.53,-23.45 -4.52,-7.53 -10.84,-14.9 -19.16,-22.45 -38.51,-10.65 -77.17,-21.47 -115.67,-32.77 -43.38,-14.43 -75.55,-32.79 -96.7,-55.23 -20.97,-22.46 -31.45,-49.34 -31.45,-80.63 0,-10.49 1.43,-20.98 4.15,-31.29 2.71,-10.34 6.5,-20.82 11.39,-31.31 15.72,-34.43 45.37,-59.33 88.74,-75.07 27.64,-9.99 56.21,-14.91 85.86,-14.91 21.32,0 41.39,2.96 60.36,8.86 18.98,6.05 35.61,15.56 50.07,28.67l0 -27.19 110.43 0 0 133.89 -147.66 0c-4.15,-10.65 -6.86,-17.21 -8.13,-19.66 -6.32,-10.65 -14.82,-16.72 -25.84,-18.36 -11.03,-1.47 -17.9,-2.29 -20.61,-2.29 -20.06,0 -32.36,8.36 -37.23,25.26 -1.98,6.87 -1.09,13.43 3.07,19.65 4.15,6.23 7.6,11.32 10.3,15.08 63.44,21.81 126.71,43.44 190.15,64.58 41.92,34.41 62.89,73.42 62.89,117.02 0,18.85 -4.15,37.52 -12.47,56.21z"/>
   <polygon class="fil1" points="480.07,2773.06 1209.27,2773.06 1209.27,2902.82 480.07,2902.82 "/>
   <path class="fil1 str0" d="M1752.37 2.21c550.17,0 996.33,435.15 996.33,971.72 0,536.57 -446.16,971.71 -996.33,971.71 -550.16,0 -996.31,-435.14 -996.31,-971.71 0,-536.57 446.16,-971.72 996.31,-971.72z"/>
   <polygon class="fil2" points="1658.17,1295.17 1215.69,1295.17 1215.69,1097.04 1312.38,1097.04 1312.38,530.23 1215.69,530.23 1215.69,332.1 1658.17,332.1 1658.17,530.23 1563.08,530.23 1563.08,1097.04 1658.17,1097.04 "/>
   <path class="fil2" d="M2436.12 968.28c0,92.61 -33.82,172.58 -101.2,240.14 -67.35,67.55 -148.71,101.22 -244.34,101.22l-120.72 0 0 103.99 95.09 0 0 198.13 -442.47 0 0 -198.13 96.69 0 0 -566.8 -96.69 0 0 -198.13 486.08 0c92.44,0 170.38,30.61 233.24,91.85 62.88,61.24 94.32,137.15 94.32,227.73zm-250.7 8.86c0,-28.34 -9.77,-53.65 -29.32,-75.66 -19.55,-22.03 -42.53,-32.89 -68.69,-32.89l-117.55 0 0 226.97 117.55 -2.79c33.28,0 57.85,-10.87 73.96,-32.89 16.13,-22.03 24.04,-49.6 24.04,-82.74z"/>
   <polygon class="fil1" points="1635.39,2773.06 3277.95,2773.06 3277.95,2902.82 1635.39,2902.82 "/>
   <polygon class="fil1" points="60.54,2024.73 398.79,2024.73 398.79,2160.36 315.32,2160.36 315.32,2774.92 405.39,2774.92 405.39,2904.17 62.74,2904.17 62.74,2768.55 133.02,2768.55 133.02,2164.6 60.54,2164.6 "/>
   <path class="fil3" d="M268.6 3180.3l7.05 7.06c-12.39,15.77 -23.24,27.3 -32.53,34.52 -9.29,7.22 -16.19,10.83 -20.53,10.83 -3.64,0 -5.5,-3.3 -5.5,-9.89 0,-16.4 10.69,-41.65 31.99,-75.86 18.05,-29.5 27.03,-45.97 27.03,-49.34 0,-2.9 -1.24,-4.39 -3.64,-4.39 -4.26,0 -14.87,9.65 -31.99,28.95 -17.12,19.3 -38.18,46.6 -63.28,81.82 -28.5,39.22 -47.94,67.23 -58.55,84.09 20.14,1.96 36.63,4.55 49.57,7.69 12.94,3.14 31.68,8.16 56.31,15.22 24.55,7.06 42.68,11.14 54.29,12.4 -14.17,16.32 -24.01,27.45 -29.35,33.34 -5.42,5.96 -9.53,9.49 -12.39,10.75 -4.49,1.96 -11.23,2.04 -20.21,0.31 -8.91,-1.8 -23.01,-5.18 -42.37,-10.2 -19.36,-5.1 -37.49,-9.34 -54.37,-12.71 -16.89,-3.37 -32.3,-5.02 -46.16,-5.02 -7.9,0 -14.64,0.94 -20.37,2.75 -5.65,1.88 -13.48,4.86 -23.55,9.1 -10.07,4.24 -17.12,6.28 -21.22,6.28 -5.89,0 -8.83,-2.43 -8.83,-7.29 0,-2.75 0.93,-5.88 2.94,-9.41 4.96,-8.08 9.84,-15.85 14.48,-23.14 4.73,-7.37 9.68,-13.1 15.03,-17.18 5.26,-4.16 12.85,-7.37 22.85,-9.65 9.99,-2.27 23.16,-3.53 39.5,-3.69 24.71,-38.28 47.63,-72.33 69.01,-101.98 21.3,-29.65 40.74,-54.68 58.17,-75.07 17.5,-20.4 32.84,-35.77 46,-46.28 13.17,-10.51 23.55,-15.77 31.29,-15.77 5.5,0 9.68,1.57 12.7,4.63 3.02,3.06 4.57,7.29 4.57,12.86 0,18.36 -15.95,56.48 -47.94,114.3z"/>
   <path id="1" class="fil3" d="M331.03 3240.94c23,-21.18 45.31,-36.87 66.99,-47.14 21.61,-10.28 38.34,-15.38 50.11,-15.38 3.18,0 6.12,1.33 8.91,4 2.71,2.67 4.88,5.8 6.43,9.34 1.62,3.53 2.4,6.12 2.4,7.84 0,2.75 -1.09,4.79 -3.18,6.04 -2.09,1.33 -5.81,2.9 -11.15,4.71 1.09,2.51 2.48,5.65 4.11,9.49 1.7,3.76 2.94,6.9 3.87,9.26 0.93,2.43 1.32,4.47 1.32,6.36 0,3.69 -3.64,10.51 -11,20.55 -7.28,10.04 -12.47,17.41 -15.41,22.2 -2.94,4.79 -4.41,10.59 -4.41,17.49 0,11.3 5.11,17.02 15.41,17.02 10.61,0 27.19,-10.04 49.73,-30.12l0 13.96c-38.26,43.07 -65.68,64.56 -82.18,64.56 -5.97,0 -10.15,-1.96 -12.7,-5.88 -2.48,-3.92 -3.72,-9.65 -3.72,-17.34 0,-12.08 4.34,-29.57 13.01,-52.56 -22.15,24.79 -38.49,42.44 -49.26,52.95 -10.77,10.43 -19.6,15.69 -26.57,15.69 -3.33,0 -7.44,-2.9 -12.47,-8.71 -4.96,-5.88 -9.37,-13.41 -13.24,-22.67 -3.87,-9.26 -5.81,-18.9 -5.81,-28.79 0,-7.22 0.7,-13.26 2.01,-18.04 1.39,-4.86 4.03,-9.81 7.98,-14.83 3.95,-5.1 10.22,-11.77 18.82,-20zm108.74 -25.34c-39.35,18.28 -67.38,33.73 -84.11,46.44 -16.73,12.79 -25.1,25.89 -25.1,39.38 0,4.87 0.85,8.94 2.48,12.08 1.7,3.14 3.95,4.71 6.82,4.71 1.71,0 4.65,-1.1 8.83,-3.22 15.88,-9.49 30.44,-21.89 43.61,-37.18 13.16,-15.22 29.04,-36.01 47.47,-62.21z"/>
   <path id="2" class="fil3" d="M1012.37 3281.26l0 15.85c-14.4,13.57 -26.64,24.55 -36.63,32.87 -10.07,8.32 -20.14,15.85 -30.13,22.51 -9.99,6.59 -18.28,11.38 -24.78,14.2 -6.58,2.83 -12.24,4.24 -16.96,4.24 -11.15,0 -20.29,-4.24 -27.42,-12.63 -7.12,-8.39 -10.69,-19.3 -10.69,-32.63 0,-15.3 3.1,-30.44 9.22,-45.42 6.12,-15.06 14.87,-30.51 26.18,-46.52 11.39,-16 25.56,-33.97 42.68,-53.89 12.7,-14.67 19.05,-22.99 19.05,-24.87 0,-1.02 -0.39,-1.96 -1.16,-2.75 -0.78,-0.71 -1.55,-1.1 -2.48,-1.1 -2.87,0 -11.69,6.43 -26.57,19.3 -14.79,12.87 -33.84,31.77 -57.08,56.79 -23.24,24.95 -48.33,54.68 -75.28,89.19 -1.55,1.8 -6.35,8 -14.48,18.67 -8.05,10.59 -13.78,17.49 -17.12,20.71 -3.33,3.22 -6.2,4.79 -8.67,4.79 -4.18,0 -7.9,-4.31 -11,-12.94 -3.1,-8.71 -4.65,-17.89 -4.65,-27.69 0,-5.96 1.94,-12.39 5.81,-19.3 3.87,-6.9 12.24,-19.3 25.25,-37.1 12.93,-17.81 23.62,-32.87 32.14,-45.11 8.44,-12.24 17.81,-27.14 27.96,-44.56 7.13,-12.16 12.39,-21.81 15.8,-28.95 3.41,-7.22 5.11,-13.57 5.11,-19.14 0,-4.71 -1.39,-7.14 -4.1,-7.14 -5.73,0 -16.57,7.84 -32.45,23.38 -15.95,15.53 -35.55,38.67 -58.94,69.35 -23.39,30.59 -47.87,66.13 -73.27,106.45 -8.37,13.73 -14.25,22.99 -17.74,27.69 -3.49,4.71 -7.28,7.14 -11.54,7.14 -5.27,0 -10.22,-5.73 -14.87,-17.1 -4.57,-11.37 -6.89,-20.63 -6.89,-27.69 0,-2.27 0.85,-4.79 2.71,-7.53 19.98,-26.98 36.4,-49.89 49.26,-68.8 12.86,-18.83 24.25,-36.71 34.23,-53.66 9.99,-16.94 17.27,-30.91 21.77,-41.81 4.57,-10.98 6.82,-19.61 6.82,-25.89 0,-6.59 -2.95,-9.89 -8.83,-9.89 -4.88,0 -13.09,3.14 -24.71,9.41 -11.7,6.28 -26.41,14.91 -44.15,25.73 -17.74,10.9 -31.99,19.22 -42.76,24.95 -10.76,5.81 -18.74,8.63 -24.01,8.63 -5.04,0 -7.51,-2.82 -7.51,-8.47 0,-3.22 1.09,-10.59 3.18,-22.2 2.09,-11.61 4.34,-19.77 6.58,-24.48 3.18,-6.12 11.31,-14.28 24.32,-24.4 13.09,-10.12 20.29,-15.14 21.69,-15.14 1.24,0 1.78,0.55 1.78,1.57 0,0.63 -0.54,1.57 -1.78,2.75 -6.2,5.1 -10.84,9.26 -13.86,12.47 -3.02,3.22 -4.88,6.75 -5.65,10.59 27.65,-16.86 52.43,-29.73 74.35,-38.52 21.84,-8.86 37.02,-13.26 45.46,-13.26 4.26,0 8.21,2.9 12.01,8.63 3.8,5.73 7.05,12.39 9.68,20 2.63,7.61 3.95,12.47 3.95,14.59 0,7.84 -1.94,17.02 -5.89,27.69 -3.95,10.67 -9.3,23.06 -16.03,37.18 -6.74,14.04 -15.1,31.69 -25.09,52.87 7.9,-10.27 15.41,-19.77 22.54,-28.55 7.13,-8.71 14.17,-17.26 21.22,-25.49 7.05,-8.32 14.17,-16.63 21.45,-25.1 9.84,-11.45 20.91,-22.44 33.15,-32.95 12.32,-10.51 23.78,-19.06 34.46,-25.73 10.61,-6.67 17.89,-10.04 21.69,-10.04 5.27,0 9.99,2.98 14.17,8.86 4.18,5.88 6.28,12.24 6.28,18.98 0,4.39 -2.87,12.95 -8.68,25.5 -5.73,12.55 -14.09,28.63 -25.17,48.32 -11,19.61 -25.64,44.87 -43.76,75.86 17.19,-18.59 35.16,-37.65 53.75,-57.26 18.59,-19.61 32.45,-33.97 41.51,-42.99 9.06,-9.02 16.65,-15.92 22.7,-20.71 8.36,-6.43 16.65,-13.34 25.09,-20.79 8.37,-7.45 15.03,-13.34 19.83,-17.57 4.88,-4.31 9.14,-7.61 12.93,-9.89 3.8,-2.35 7.28,-3.45 10.46,-3.45 3.95,0 8.91,4.55 14.87,13.81 5.96,9.18 8.99,15.06 8.99,17.65 0,3.22 -1.78,7.06 -5.35,11.53 -3.56,4.39 -10.92,12.71 -22.15,24.79 -20.6,22.44 -38.42,44.95 -53.52,67.7 -15.18,22.83 -26.64,43.54 -34.39,62.37 -7.82,18.75 -11.7,33.57 -11.7,44.48 0,6.75 1.24,11.61 3.72,14.67 2.56,3.06 6.43,4.63 11.69,4.63 4.88,0 9.37,-0.94 13.55,-2.75 4.11,-1.88 8.75,-4.47 13.79,-7.85 5.11,-3.37 9.91,-6.59 14.41,-9.65 6.35,-3.84 12.62,-7.92 18.74,-12.32 6.12,-4.31 10.92,-7.77 14.33,-10.35 3.33,-2.51 5.89,-4.31 7.59,-5.33z"/>
   <path id="3" class="fil3" d="M1046.99 3290.36l0 5.73c0,9.02 2.17,16.08 6.58,21.1 4.42,5.1 10.15,7.61 17.27,7.61 7.36,0 15.1,-1.73 23,-5.25 7.98,-3.53 15.88,-8.24 23.7,-14.04 7.9,-5.8 17.5,-13.65 28.81,-23.45l0 14.04c-17.04,20.79 -33.07,36.79 -48.1,47.85 -14.95,11.06 -30.13,16.63 -45.62,16.63 -13.4,0 -24.09,-5.25 -31.99,-15.85 -7.82,-10.59 -11.77,-25.02 -11.77,-43.46 0,-16.08 3.72,-30.67 11.15,-43.77 7.36,-13.1 19.44,-26.91 36.25,-41.42 11.54,-9.96 22.93,-17.49 34.31,-22.51 11.31,-5.1 21.45,-7.61 30.36,-7.61 7.12,0 12.78,1.65 16.88,4.94 4.18,3.3 6.27,8.24 6.27,14.83 0,9.65 -3.56,19.3 -10.69,28.87 -7.12,9.57 -17.97,19.06 -32.53,28.55 -14.64,9.41 -32.61,18.51 -53.9,27.22zm2.24 -14.9c13.63,-5.41 25.25,-12.08 34.93,-20 9.68,-7.92 16.81,-15.61 21.46,-22.83 4.57,-7.29 6.89,-12.63 6.89,-16 0,-3.53 -1.55,-5.25 -4.73,-5.25 -2.79,0 -7.2,1.73 -13.32,5.25 -6.12,3.53 -12.31,8.16 -18.59,13.81 -6.27,5.65 -11.85,12.32 -16.88,20 -4.96,7.61 -8.21,16 -9.76,25.02z"/>
   <path id="4" class="fil3" d="M1305.36 3121.94c0,4.55 -1.71,10.98 -5.19,19.3 -3.8,11.14 -7.21,18.59 -10.15,22.28 -2.94,3.69 -7.44,5.49 -13.48,5.49 -13.01,0 -19.52,-4.39 -19.52,-13.1 0,-6.9 4.03,-16.79 12,-29.65 4.26,-6.9 7.67,-11.14 10.22,-12.71 2.56,-1.65 6.74,-2.43 12.47,-2.43 9.06,0 13.63,3.61 13.63,10.83zm-145.45 118.92l6.35 -18.2 41.98 -19.3c24.94,-11.92 43.06,-17.89 54.21,-17.89 8.83,0 13.17,4.08 13.17,12.16 0,2.98 -1.16,7.69 -3.49,14.2 -2.4,6.51 -6.27,15.85 -11.85,27.93 -5.5,12.08 -11.85,25.89 -19.13,41.26 -7.28,15.45 -14.79,31.3 -22.7,47.54 11.31,-7.85 21.3,-15.14 29.82,-21.81 8.6,-6.67 18.59,-15.14 30.05,-25.26l0.47 16.32c-29.04,25.49 -55.92,50.75 -80.78,75.94 -14.95,29.57 -28.19,51.85 -39.66,66.91 -11.54,14.98 -20.14,22.51 -25.87,22.51 -4.11,0 -6.12,-4.08 -6.2,-12.16 0.08,-9.96 2.25,-20 6.58,-30.04 4.41,-10.04 11.15,-20.63 20.21,-31.69 9.06,-11.14 19.83,-22.44 32.22,-33.97 19.21,-38.28 32.84,-66.13 40.74,-83.54 7.98,-17.42 11.93,-28.79 11.93,-34.2 0,-3.37 -1.63,-5.02 -4.8,-5.02 -1.63,0 -12.93,4.94 -33.77,14.83 -20.91,9.89 -33.92,14.83 -39.04,14.83 -3.18,0 -4.8,-1.8 -4.8,-5.26 0,-2.35 1.47,-7.69 4.34,-16.08z"/>
   <path id="5" class="fil3" d="M1422.7 3281.58l0 15.37c-9.99,9.18 -17.97,15.3 -24.01,18.43 -6.04,3.06 -14.71,4.24 -26.1,3.61 -19.6,23.61 -36.94,35.46 -51.89,35.46 -8.52,0 -16.19,-2.82 -23.16,-8.47 -6.97,-5.73 -12.55,-13.41 -16.65,-23.22 -4.18,-9.81 -6.27,-20.79 -6.27,-32.87 0,-9.81 3.17,-20.71 9.6,-32.63 6.43,-11.92 14.79,-23.06 25.02,-33.42 10.15,-10.36 21.07,-18.67 32.76,-25.02 11.62,-6.36 22.46,-9.57 32.37,-9.57 7.13,0 12.7,1.1 16.81,3.3 4.11,2.27 6.12,5.33 6.12,9.33 0,3.06 -1.71,6.59 -5.19,10.59 5.73,1.18 9.68,3.22 11.77,6.04 2.09,2.82 3.18,8 3.18,15.53 0,7.37 -1.7,16.63 -5.11,27.77 -3.41,11.22 -8.05,21.65 -13.94,31.46l4.1 4.16 3.41 0c2.56,0 5.11,-0.71 7.59,-1.96 2.48,-1.33 4.72,-2.67 6.66,-4.16 2.01,-1.41 6.28,-4.71 12.93,-9.73zm-46.7 -60.33c-12.55,7.61 -23.24,14.59 -32.22,20.79 -8.91,6.2 -16.42,12.47 -22.7,18.83 -6.2,6.36 -10.3,12.71 -12.47,19.14 -3.79,17.1 -5.66,26.36 -5.66,27.77 0,10.12 6.97,15.14 20.91,15.14 6.51,0 17.35,-5.65 32.69,-16.94 -2.56,-7.22 -3.87,-14.12 -3.87,-20.71 0,-9.65 1.94,-19.46 5.89,-29.5 3.95,-10.04 9.76,-21.5 17.43,-34.52z"/>
   <path id="6" class="fil3" d="M1419.99 3299.86l0 -14.98c8.13,-9.81 14.33,-18.12 18.59,-25.02 -4.88,-1.73 -8.36,-3.77 -10.53,-6.28 -2.25,-2.43 -3.33,-6.12 -3.33,-10.98 0,-5.57 2.33,-12.55 6.82,-20.94 4.57,-8.47 10.14,-16.4 16.8,-23.77 6.66,-7.37 12.7,-12.08 18.12,-14.28 2.17,-1.02 4.18,-1.57 6.2,-1.57 3.02,0 4.57,1.41 4.57,4.39 0,2.59 -2.4,7.84 -7.13,15.85 31.21,-4.94 50.88,-7.37 59.1,-7.37 3.18,0 5.35,0.31 6.58,0.94 2.56,1.33 4.65,4.55 6.35,9.65 1.63,5.1 2.48,10.12 2.48,15.22 0,3.22 -1.4,6.67 -4.18,10.43 -2.79,3.77 -7.59,9.26 -14.4,16.47 -8.06,8.79 -14.72,18.28 -20.22,28.55 -5.42,10.28 -8.13,18.04 -8.13,23.22 0,7.22 4.42,10.83 13.17,10.83 9.22,0 25.25,-9.49 48.1,-28.55l0 15.45c-12.63,13.26 -23,23.77 -31.13,31.38 -8.21,7.69 -15.72,13.73 -22.7,18.28 -6.97,4.47 -13.16,6.75 -18.67,6.75 -6.35,0 -11.62,-2.98 -15.87,-8.86 -4.26,-5.88 -6.35,-14.43 -6.35,-25.57 0,-6.59 1.71,-14.12 5.04,-22.51 3.33,-8.47 8.21,-17.57 14.64,-27.46 6.43,-9.89 13.63,-19.77 21.69,-29.57 -4.26,0.94 -8.98,1.88 -14.33,2.9 -5.27,1.02 -10.84,2.04 -16.81,3.14 -5.89,1.02 -10.45,1.88 -13.63,2.51 -9.37,19.06 -23,36.32 -40.82,51.77z"/>
   <path id="7" class="fil3" d="M1767.75 3361.12l-14.09 -10.35c-2.09,-1.88 -3.18,-3.76 -3.18,-5.73 0,-2.04 3.56,-8.94 10.69,-20.71 5.11,-8.47 12,-20 20.76,-34.75 8.68,-14.67 15.65,-26.75 20.91,-36.24 5.34,-9.49 11.77,-21.97 19.44,-37.34 7.59,-15.45 14.56,-30.52 20.91,-45.18 14.64,-33.89 22,-55.46 22,-64.8 0,-11.06 -4.26,-16.55 -12.7,-16.55 -6.35,0 -15.33,3.3 -27.11,9.81 -11.69,6.51 -23.78,15.06 -36.32,25.65 -12.55,10.59 -23,21.57 -31.29,33.11 -8.29,11.53 -12.47,21.65 -12.47,30.36 0,1.41 0.39,2.43 1.16,3.14 0.7,0.71 2.09,1.02 4.03,1.02 3.64,0 9.53,-2.12 17.74,-6.43 3.64,-1.8 5.42,-1.57 5.42,0.94 0,2.43 -5.73,8.71 -17.19,18.91 -11.54,10.2 -19.98,15.29 -25.4,15.29 -4.72,0 -11.23,-4.08 -19.6,-12.31 -8.44,-8.16 -12.62,-15.69 -12.62,-22.44 0,-2.59 2.32,-8.79 7.05,-18.59 4.65,-9.81 11.08,-20.94 19.21,-33.26 8.21,-12.32 16.8,-23.06 25.87,-32.08 10.45,-10.59 22.38,-20 35.78,-28.32 13.32,-8.24 26.18,-14.67 38.57,-19.3 12.31,-4.63 22.23,-6.9 29.82,-6.9 10.84,0 19.36,4.16 25.48,12.55 6.12,8.32 9.22,20 9.22,34.99 0,19.93 -7.75,48.79 -23.16,86.45 -15.41,37.73 -39.19,81.82 -71.26,132.42 0.47,1.49 0.93,3.14 1.55,4.94 0.62,1.73 0.93,3.37 0.93,4.94 0,0.31 -0.23,0.86 -0.7,1.73 -0.47,0.78 -1.01,1.73 -1.55,2.59 -0.62,0.94 -1.01,1.57 -1.16,1.88l-16.57 27.61c-1.78,3.14 -3.64,4.79 -5.66,4.79 -1.78,0 -3.33,-0.63 -4.49,-1.8z"/>
   <path id="8" class="fil3" d="M1972.61 3313.5c20.91,-18.67 38.8,-34.91 53.83,-48.79 14.95,-13.88 26.72,-24.79 35.24,-32.79 8.6,-7.92 16.11,-14.67 22.62,-20.16 6.51,-5.57 10.69,-8.32 12.47,-8.32 3.49,-0.16 6.81,3.45 9.99,10.9 3.17,7.45 4.8,13.41 4.8,17.81 0,2.9 -4.8,9.81 -14.4,20.63 -9.68,10.75 -16.89,19.38 -21.61,25.81 -4.8,6.43 -7.2,13.18 -7.2,20.24 0,4.16 1.39,7.45 4.1,9.96 2.71,2.59 5.96,3.84 9.76,3.84 4.42,0 9.68,-2.35 15.8,-6.9 6.12,-4.63 15.8,-12.87 28.97,-24.63l0 16.32c-13.17,12.55 -25.17,23.45 -35.94,32.55 -10.69,9.18 -20.06,16 -28.04,20.55 -7.98,4.47 -14.56,6.75 -19.91,6.75 -4.65,0 -8.6,-1.8 -11.77,-5.41 -3.17,-3.61 -4.8,-8.08 -4.8,-13.41 0,-5.25 0.93,-10.51 2.71,-15.92 1.86,-5.33 4.65,-11.69 8.44,-19.06 3.8,-7.37 8.75,-16.24 15.03,-26.59 6.2,-10.35 11.85,-19.85 17.04,-28.4 -15.41,12.71 -29.12,24.95 -41.05,36.79 -12.01,11.84 -21.77,22.12 -29.28,30.99 -7.59,8.78 -13.55,15.77 -17.97,20.79 -8.44,9.49 -16.26,14.28 -23.54,14.28 -7.82,0 -11.77,-5.65 -11.77,-17.02 0,-4.63 2.94,-12.87 8.83,-24.79 5.89,-11.84 14.25,-26.98 25.1,-45.42 0.93,-1.26 1.39,-3.14 1.39,-5.73 0,-3.06 -1.47,-4.63 -4.49,-4.63 -3.33,0 -8.21,3.22 -14.49,9.57 -6.27,6.35 -18.36,19.69 -36.4,39.93 -4.96,5.65 -10.61,13.1 -16.89,22.2 -6.27,9.1 -10.76,15.22 -13.47,18.28 -2.79,3.06 -5.5,4.63 -8.21,4.63 -5.42,0 -10.53,-4.94 -15.18,-14.75 -4.72,-9.81 -7.05,-21.26 -7.05,-34.28 0,-9.49 1.55,-17.73 4.65,-24.63 3.1,-6.9 7.9,-15.45 14.48,-25.73 10.15,-14.91 18.43,-25.5 24.86,-31.85 6.43,-6.36 13.17,-9.49 20.29,-9.49 4.42,0 8.13,0.86 11.15,2.59 3.02,1.8 4.49,4.23 4.49,7.29 0,3.22 -2.71,8.47 -8.29,15.85 -5.5,7.3 -12.47,14.91 -20.99,22.67 -4.49,4.47 -8.83,9.96 -12.93,16.47 -4.1,6.51 -6.12,11.22 -6.12,14.12 0,4.16 1.63,6.2 4.8,6.2 2.56,0 9.06,-5.33 19.44,-16.08 10.46,-10.75 21.92,-22.36 34.39,-34.99 12.47,-12.63 24.01,-23.14 34.7,-31.46 10.61,-8.39 19.67,-12.55 27.03,-12.55 4.57,0 8.29,1.73 11.23,5.18 2.94,3.45 4.41,7.69 4.41,12.71 0,3.37 -2.25,9.49 -6.82,18.28 -4.49,8.86 -11.08,19.69 -19.83,32.63 -8.67,12.94 -19.83,28.63 -33.61,46.99z"/>
   <path id="9" class="fil3" d="M2122.63 3301.27l0 -16c21.22,-23.3 39.5,-45.26 54.83,-65.74 15.34,-20.55 27.49,-36.87 36.4,-48.95 8.91,-12.08 16.81,-20.63 23.62,-25.65 6.82,-4.94 15.33,-7.45 25.64,-7.45 5.11,0 7.75,1.96 7.75,5.96 0,3.22 -2.09,8 -6.27,14.28 -4.18,6.28 -9.53,12.71 -16.03,19.3 -8.6,8.63 -17.04,19.38 -25.25,32.32 -8.29,12.94 -17.58,29.5 -28.04,49.58 8.13,-6.43 17.58,-14.12 28.27,-22.91 10.61,-8.78 19.36,-15.69 26.1,-20.71 6.74,-4.94 13.4,-8.86 19.98,-11.77 6.58,-2.9 13.17,-4.39 19.83,-4.39 4.26,0 6.97,0.78 8.29,2.27 1.32,1.57 1.94,4.55 1.94,8.94 0,11.69 -2.79,23.06 -8.36,34.12 -5.65,11.06 -13.63,22.59 -24.09,34.52 -10.46,12 -23.31,24.95 -38.65,39.07 5.35,1.96 10.77,2.98 16.42,2.98 17.51,0 41.05,-13.57 70.56,-40.64l0 16.55c-11.46,10.43 -22.77,20.24 -33.69,29.5 -11,9.18 -21.3,16.55 -30.98,22.04 -9.68,5.57 -18.59,8.32 -26.8,8.32 -3.02,0 -6.2,-0.31 -9.61,-1.02 -3.41,-0.71 -6.58,-1.57 -9.45,-2.59 -2.87,-0.94 -6.58,-2.35 -11.15,-4.24 -4.49,-1.88 -7.98,-3.14 -10.38,-3.92 -4.88,1.26 -7.59,1.88 -8.21,1.88 -5.26,0 -11.46,-2.2 -18.59,-6.51 -5.03,9.81 -10.45,22.44 -16.42,38.05 -6.04,15.53 -11.07,27.85 -15.1,37.03 -4.1,9.18 -9.53,17.96 -16.34,26.44 -3.79,3.84 -6.43,5.73 -7.98,5.73 -6.51,0 -9.76,-5.8 -9.76,-17.49 0,-10.12 2.01,-20.63 6.04,-31.54 4.03,-10.98 8.91,-21.34 14.71,-31.14 5.89,-9.81 12.24,-19.77 19.21,-29.81 6.97,-9.96 11.85,-17.49 14.72,-22.36 23.93,-41.65 42.52,-77.03 55.84,-106.29 -34.78,42.83 -61.11,73.58 -79,92.25zm92.16 11.3c14.95,-15.93 26.1,-29.5 33.46,-40.64 7.36,-11.22 11,-19.77 11,-25.73 0,-5.65 -2.79,-8.47 -8.37,-8.47 -7.59,0 -18.2,6.28 -31.91,18.9 -13.71,12.63 -27.8,29.65 -42.29,51.07 11.15,-1.18 18.67,-1.65 22.46,-1.25 3.72,0.39 8.98,2.43 15.64,6.12z"/>
   <path id="10" class="fil3" d="M2311.61 3299.86l0 -14.98c8.13,-9.81 14.33,-18.12 18.59,-25.02 -4.88,-1.73 -8.36,-3.77 -10.53,-6.28 -2.25,-2.43 -3.33,-6.12 -3.33,-10.98 0,-5.57 2.32,-12.55 6.82,-20.94 4.57,-8.47 10.14,-16.4 16.81,-23.77 6.66,-7.37 12.7,-12.08 18.12,-14.28 2.17,-1.02 4.18,-1.57 6.2,-1.57 3.02,0 4.57,1.41 4.57,4.39 0,2.59 -2.4,7.84 -7.12,15.85 31.21,-4.94 50.88,-7.37 59.09,-7.37 3.18,0 5.35,0.31 6.58,0.94 2.56,1.33 4.65,4.55 6.35,9.65 1.63,5.1 2.48,10.12 2.48,15.22 0,3.22 -1.4,6.67 -4.18,10.43 -2.79,3.77 -7.59,9.26 -14.41,16.47 -8.06,8.79 -14.71,18.28 -20.22,28.55 -5.42,10.28 -8.13,18.04 -8.13,23.22 0,7.22 4.41,10.83 13.16,10.83 9.22,0 25.25,-9.49 48.1,-28.55l0 15.45c-12.62,13.26 -23,23.77 -31.13,31.38 -8.21,7.69 -15.72,13.73 -22.69,18.28 -6.97,4.47 -13.17,6.75 -18.67,6.75 -6.35,0 -11.62,-2.98 -15.88,-8.86 -4.26,-5.88 -6.35,-14.43 -6.35,-25.57 0,-6.59 1.71,-14.12 5.03,-22.51 3.33,-8.47 8.21,-17.57 14.64,-27.46 6.43,-9.89 13.63,-19.77 21.69,-29.57 -4.26,0.94 -8.98,1.88 -14.33,2.9 -5.27,1.02 -10.84,2.04 -16.81,3.14 -5.88,1.02 -10.45,1.88 -13.63,2.51 -9.37,19.06 -23,36.32 -40.82,51.77z"/>
   <path id="11" class="fil3" d="M2485.95 3290.36l0 5.73c0,9.02 2.17,16.08 6.58,21.1 4.41,5.1 10.14,7.61 17.27,7.61 7.36,0 15.1,-1.73 23,-5.25 7.98,-3.53 15.87,-8.24 23.7,-14.04 7.9,-5.8 17.5,-13.65 28.81,-23.45l0 14.04c-17.04,20.79 -33.07,36.79 -48.1,47.85 -14.95,11.06 -30.13,16.63 -45.62,16.63 -13.4,0 -24.09,-5.25 -31.99,-15.85 -7.82,-10.59 -11.77,-25.02 -11.77,-43.46 0,-16.08 3.72,-30.67 11.15,-43.77 7.36,-13.1 19.44,-26.91 36.25,-41.42 11.54,-9.96 22.93,-17.49 34.31,-22.51 11.31,-5.1 21.46,-7.61 30.36,-7.61 7.13,0 12.78,1.65 16.88,4.94 4.18,3.3 6.27,8.24 6.27,14.83 0,9.65 -3.56,19.3 -10.69,28.87 -7.13,9.57 -17.97,19.06 -32.53,28.55 -14.64,9.41 -32.61,18.51 -53.91,27.22zm2.25 -14.9c13.63,-5.41 25.25,-12.08 34.93,-20 9.68,-7.92 16.8,-15.61 21.45,-22.83 4.57,-7.29 6.89,-12.63 6.89,-16 0,-3.53 -1.55,-5.25 -4.72,-5.25 -2.79,0 -7.21,1.73 -13.32,5.25 -6.12,3.53 -12.31,8.16 -18.59,13.81 -6.27,5.65 -11.85,12.32 -16.88,20 -4.96,7.61 -8.21,16 -9.76,25.02z"/>
   <path id="12" class="fil3" d="M2584.47 3288.56l0 -5.57c39.04,-41.65 65.83,-70.84 80.55,-87.54 3.33,-18.91 11.31,-28.32 24.01,-28.32 3.17,0 6.58,0.94 10.22,2.75l1.4 4.39c-0.62,1.8 -0.93,4.47 -0.93,7.84 0,2.9 1.08,8.32 3.33,16.16 2.17,7.92 3.87,14.59 5.11,19.93 1.16,5.33 1.78,11.45 1.78,18.2 0,10.12 -2.25,19.77 -6.82,29.02 -4.57,9.34 -11.15,18.2 -19.75,26.75 -8.6,8.47 -19.75,17.18 -33.38,26.04 5.42,0.94 9.76,1.41 12.93,1.41 6.2,0 12.93,-1.57 20.14,-4.71 7.13,-3.14 14.48,-7.37 22,-12.63 7.51,-5.33 16.19,-12.16 26.18,-20.55l0 15.37c-19.36,19.14 -36.64,33.57 -51.97,43.46 -15.26,9.88 -28.42,14.83 -39.42,14.83 -14.25,0 -27.42,-6.12 -39.5,-18.36 -7.13,-7.37 -11.54,-14.44 -13.32,-21.1 -1.7,-6.75 -2.56,-15.92 -2.56,-27.38zm84.58 -35.14l-4.11 -33.57c-9.37,10.75 -29.35,31.38 -60.1,61.81 9.06,2.04 15.26,4.71 18.59,8.08 3.33,3.37 8.06,9.89 14.1,19.53 10.3,-4.31 18.2,-10.12 23.7,-17.57 5.5,-7.45 8.29,-17.57 8.29,-30.44 0,-1.57 0,-2.98 -0.08,-4.16 -0.08,-1.26 -0.23,-2.43 -0.39,-3.69z"/>
   <path id="13" class="fil3" d="M2823.41 3179.36c-3.79,0 -7.36,-1.49 -10.77,-4.39 -3.41,-2.9 -5.11,-6.59 -5.11,-10.98 0,-6.75 3.18,-14.28 9.53,-22.59 6.35,-8.24 12.93,-12.39 19.67,-12.39 4.57,0 8.37,1.41 11.38,4.24 3.02,2.82 4.49,6.98 4.49,12.32 0,6.59 -3.1,13.88 -9.29,21.89 -6.2,7.92 -12.86,11.92 -19.91,11.92zm15.41 102.69l0 16.79c-14.71,19.14 -28.42,33.65 -41.13,43.38 -12.7,9.73 -23.47,14.59 -32.38,14.59 -12.47,0 -21.69,-6.59 -27.73,-19.77 -6.04,-13.18 -9.06,-27.61 -9.06,-43.22 0,-5.96 0.62,-11.69 1.78,-17.1 1.24,-5.49 2.71,-9.96 4.34,-13.49 1.7,-3.53 4.8,-9.02 9.37,-16.55 21.46,-33.89 41.13,-50.83 58.94,-50.83 9.22,0 13.86,3.61 13.86,10.82 0,4.87 -3.02,12.55 -8.98,22.99 -5.97,10.43 -11.31,17.89 -15.96,22.36 -13.16,12.87 -21.76,21.81 -25.71,26.83 -4.03,5.1 -6.04,10.83 -6.04,17.26 0,5.49 2.02,10.12 6.12,13.81 4.11,3.69 9.37,5.49 15.88,5.49 7.13,0 14.95,-2.67 23.47,-7.92 8.52,-5.25 19.59,-13.73 33.22,-25.42z"/>
   <path id="14" class="fil3" d="M2982.57 3281.58l0 15.37c-9.99,9.18 -17.97,15.3 -24.01,18.43 -6.04,3.06 -14.72,4.24 -26.1,3.61 -19.6,23.61 -36.94,35.46 -51.89,35.46 -8.52,0 -16.19,-2.82 -23.16,-8.47 -6.97,-5.73 -12.55,-13.41 -16.65,-23.22 -4.18,-9.81 -6.27,-20.79 -6.27,-32.87 0,-9.81 3.18,-20.71 9.6,-32.63 6.43,-11.92 14.79,-23.06 25.02,-33.42 10.15,-10.36 21.07,-18.67 32.76,-25.02 11.62,-6.36 22.46,-9.57 32.37,-9.57 7.13,0 12.7,1.1 16.81,3.3 4.11,2.27 6.12,5.33 6.12,9.33 0,3.06 -1.71,6.59 -5.19,10.59 5.73,1.18 9.68,3.22 11.77,6.04 2.09,2.82 3.17,8 3.17,15.53 0,7.37 -1.7,16.63 -5.11,27.77 -3.41,11.22 -8.05,21.65 -13.94,31.46l4.1 4.16 3.41 0c2.56,0 5.11,-0.71 7.59,-1.96 2.48,-1.33 4.73,-2.67 6.66,-4.16 2.01,-1.41 6.27,-4.71 12.93,-9.73zm-46.7 -60.33c-12.55,7.61 -23.24,14.59 -32.22,20.79 -8.91,6.2 -16.42,12.47 -22.69,18.83 -6.2,6.36 -10.3,12.71 -12.47,19.14 -3.79,17.1 -5.65,26.36 -5.65,27.77 0,10.12 6.97,15.14 20.91,15.14 6.51,0 17.35,-5.65 32.68,-16.94 -2.56,-7.22 -3.87,-14.12 -3.87,-20.71 0,-9.65 1.93,-19.46 5.89,-29.5 3.95,-10.04 9.76,-21.5 17.43,-34.52zm2.71 -75.78c-2.56,0 -4.96,-0.86 -7.05,-2.67 -2.09,-1.73 -3.18,-3.69 -3.18,-5.8 0,-5.73 7.9,-20.16 23.62,-43.46 6.82,-9.65 12.47,-16 17.12,-19.14 4.57,-3.14 11.15,-4.71 19.6,-4.71 11.23,0 16.81,3.92 16.81,11.69 0,4.47 -4.88,11.84 -14.64,22.04 -9.76,10.28 -20.22,19.85 -31.29,28.71 -11.15,8.86 -18.12,13.34 -20.99,13.34z"/>
   <path id="15" class="fil3" d="M3135.15 3240.47c-26.64,30.04 -39.96,50.99 -39.96,62.76 0,6.59 2.63,9.89 7.98,9.89 4.33,0 10.07,-2.35 17.11,-7.06 7.05,-4.63 18.05,-12.94 32.99,-24.87l0 15.77c-21.46,21.5 -37.95,37.03 -49.41,46.52 -11.54,9.49 -20.91,14.28 -28.19,14.28 -12.39,0 -18.59,-8.32 -18.59,-24.87 0,-4.86 0.78,-9.73 2.25,-14.43 1.55,-4.79 3.64,-9.73 6.27,-14.83 2.64,-5.18 6.66,-12.47 12.16,-22.04 5.42,-9.65 11.69,-20.47 18.82,-32.56 -8.6,4.47 -19.44,13.26 -32.45,26.36 -8.52,8.32 -15.64,16.16 -21.61,23.61 -5.89,7.45 -12.16,15.69 -18.9,24.79 -6.74,9.18 -11.7,15.3 -14.79,18.43 -3.1,3.14 -6.2,4.71 -9.37,4.71 -4.88,0 -9.29,-5.1 -13.4,-15.37 -4.11,-10.28 -6.12,-22.28 -6.12,-35.93 0,-8.39 0.93,-14.98 2.86,-19.77 1.86,-4.71 5.58,-11.45 11.23,-20.24 10.38,-16.24 19.44,-28.16 26.95,-35.77 7.59,-7.53 14.87,-11.38 21.77,-11.38 4.88,0 8.75,0.86 11.69,2.51 2.94,1.73 4.41,4.31 4.41,7.84 0,1.57 -0.39,3.14 -1.32,4.87 -0.93,1.73 -1.94,3.22 -3.1,4.63 -1.09,1.33 -3.49,4.08 -7.13,8 -23.85,26.83 -35.78,44.24 -35.78,52.17 0,4.47 1.47,6.67 4.34,6.67 1.78,0 5.27,-2.98 10.53,-8.86 5.19,-5.88 11.92,-13.65 20.14,-23.22 8.29,-9.57 18.05,-19.53 29.27,-29.97 11.31,-10.43 24.09,-20.47 38.42,-30.12 8.06,-5.73 14.72,-8.55 19.98,-8.55 2.48,0 4.81,3.37 7.21,10.12 2.32,6.75 3.48,13.57 3.48,20.55 0,3.37 -3.25,8.47 -9.76,15.38z"/>
   <path id="16" class="fil3" d="M3309.96 3059.81c3.18,-0.94 5.96,-1.41 8.44,-1.41 4.96,0 10.45,1.57 16.42,4.79 5.97,3.22 11,7.77 15.1,13.57 -7.13,10.59 -18.67,27.93 -34.62,51.93 -15.96,24.08 -27.88,42.05 -35.7,53.97 -7.9,12 -15.96,24.4 -24.32,37.26 -8.29,12.87 -14.56,22.83 -18.82,29.89 2.86,0.55 4.34,2.35 4.34,5.26 0,1.8 -1.78,4.94 -5.34,9.41 -3.56,4.47 -6.82,6.67 -9.68,6.67 -3.33,0 -7.51,-3.06 -12.7,-9.18 -5.11,-6.12 -7.67,-11.45 -7.67,-15.85 0,-2.2 1.16,-5.8 3.49,-11.06 2.4,-5.18 6.51,-13.02 12.39,-23.53 5.89,-10.51 12.47,-22.12 19.83,-34.83 7.36,-12.71 16.26,-28.32 26.88,-46.83 20.76,-36.01 34.7,-59.38 41.98,-70.05zm-112.07 292.76c-4.49,0 -8.99,-2.04 -13.32,-6.12 -4.42,-4 -6.59,-9.73 -6.59,-17.1 0,-9.57 2.48,-20.47 7.36,-32.56 4.88,-12.08 9.99,-18.12 15.33,-18.12 3.25,0 6.66,1.18 10.07,3.53 3.41,2.43 6.27,5.73 8.67,10.04 2.4,4.24 3.64,9.02 3.64,14.2 0,8.39 -2.79,18.2 -8.36,29.34 -5.58,11.22 -11.23,16.79 -16.81,16.79z"/>
  </g>
 </g>
</svg>
