<?xml version="1.0" encoding="UTF-8"?>
<!DOCTYPE svg PUBLIC "-//W3C//DTD SVG 1.1//EN" "http://www.w3.org/Graphics/SVG/1.1/DTD/svg11.dtd">
<!-- Creator: CorelDRAW 2020 (64-Bit) -->
<svg xmlns="http://www.w3.org/2000/svg" xml:space="preserve" width="1425px" height="1486px" version="1.1" style="shape-rendering:geometricPrecision; text-rendering:geometricPrecision; image-rendering:optimizeQuality; fill-rule:evenodd; clip-rule:evenodd"
viewBox="0 0 1016.47 1059.91"
 xmlns:xlink="http://www.w3.org/1999/xlink"
 xmlns:xodm="http://www.corel.com/coreldraw/odm/2003">
 <defs>
  <style type="text/css">
   <![CDATA[
    .str0 {stroke:#000066;stroke-width:1.68;stroke-miterlimit:22.9256}
    .fil8 {fill:#000066}
    .fil6 {fill:#FEFEFE;fill-rule:nonzero}
    .fil0 {fill:#FBC1A1;fill-rule:nonzero}
    .fil5 {fill:#FAF5E0;fill-rule:nonzero}
    .fil4 {fill:#4863AC;fill-rule:nonzero}
    .fil1 {fill:#373963;fill-rule:nonzero}
    .fil7 {fill:#000066;fill-rule:nonzero}
    .fil2 {fill:#336699;fill-rule:nonzero}
    .fil3 {fill:#71B0FF;fill-rule:nonzero}
    .fil9 {fill:white;fill-rule:nonzero}
   ]]>
  </style>
 </defs>
 <g id="Capa_x0020_1">
  <metadata id="CorelCorpID_0Corel-Layer"/>
  <polygon class="fil0" points="1016.47,195.74 1012.99,188.16 1012.99,188.16 "/>
  <path class="fil1" d="M569.11 357.39l0 0c-5.93,-0.17 -10.59,-5.18 -10.3,-11.12 1.32,-25.84 5.83,-94 19.9,-161.44 24.7,-118.68 66.06,-178.86 122.8,-178.86 56.89,0 97.16,60.24 119.75,179.04 12.8,67.45 16.04,135.6 16.88,161.45 0.19,5.95 -4.55,10.87 -10.54,10.93 -5.78,0.05 -10.53,-4.54 -10.67,-10.34 -2.4,-98.22 -26.44,-319.78 -115.42,-319.78 -89.07,0 -117.29,221.71 -121.48,319.98 -0.24,5.8 -5.08,10.3 -10.92,10.14z"/>
  <polygon class="fil2" points="263.74,1059.91 354.89,323.47 912.95,323.47 1004.07,1059.91 "/>
  <polygon class="fil3" points="224.78,1059.91 315.93,323.47 873.95,323.47 965.11,1059.91 "/>
  <path class="fil1" d="M490.64 366.42c0,14.53 -11.82,26.31 -26.31,26.31 -14.54,0 -26.35,-11.78 -26.35,-26.31 0,-14.52 11.81,-26.31 26.35,-26.31 14.49,0 26.31,11.79 26.31,26.31z"/>
  <path class="fil1" d="M759.76 366.42c0,14.53 -11.76,26.31 -26.3,26.31 -14.54,0 -26.3,-11.78 -26.3,-26.31 0,-14.52 11.76,-26.31 26.3,-26.31 14.54,0 26.3,11.79 26.3,26.31z"/>
  <path class="fil1" d="M464.95 363.37l0 0c-6.17,-0.18 -10.97,-5.36 -10.64,-11.5 1.31,-26.72 6.03,-97.19 20.52,-166.93 25.59,-122.72 68.31,-184.94 127.03,-184.94 58.81,0 100.45,62.29 123.79,185.13 13.22,69.74 16.61,140.21 17.45,166.93 0.19,6.16 -4.7,11.25 -10.86,11.3 -6.02,0.06 -10.92,-4.69 -11.11,-10.69 -2.45,-101.56 -27.33,-330.65 -119.27,-330.65 -92.13,0 -121.29,229.25 -125.63,330.86 -0.28,5.99 -5.31,10.65 -11.28,10.49z"/>
  <path class="fil4" d="M328.78 489.69c-14.59,-7.97 -20.52,-26.99 -13.41,-42.58 6.68,-14.44 22.26,-20.77 35.99,-15.35 1.18,0.35 2.26,0.84 3.39,1.44 0.71,0.43 1.46,0.87 2.21,1.42 12.8,8.46 17.89,26.37 11.15,41.05 -1.32,2.88 -3.01,5.48 -4.93,7.54 -0.34,0.44 -0.71,0.86 -1.08,1.29 -1.09,1.17 -2.22,2.13 -3.4,2.85l-0.37 0.2c-8.47,6.39 -19.67,7.42 -29.55,2.14zm-19.34 353.15l148.59 -265.09 -20.7 -46.75 -9.84 -22.35 -1.55 -3.59 -46.01 -104.26 -1.75 0.12 -9.97 0.55 -208.48 12.27 -127.88 205.07 -28.85 46.19c-5.93,9.54 -2.77,22.63 6.82,28.09l275.96 156.71c8.46,4.86 18.72,1.77 23.66,-6.96z"/>
  <path class="fil5" d="M282.51 739.15c-2.79,-2.6 -3.7,-5.81 -2.83,-9.86 0.96,-4.04 3.25,-8.08 6.88,-12.12 3.54,-3.95 7.29,-6.65 11.21,-7.99 3.83,-1.44 7.12,-0.83 10,1.68 2.79,2.49 3.71,5.71 2.75,9.66 -0.88,3.95 -3.25,7.98 -6.92,12.12 -3.62,4.04 -7.25,6.73 -11.08,8.09 -3.84,1.44 -7.13,0.92 -10.01,-1.58zm18.67 12.62c4.92,-2.13 9.3,-5.35 13.13,-9.67 3.92,-4.3 6.75,-8.97 8.38,-14.02 1.58,-4.95 1.91,-9.8 1.04,-14.45 -0.92,-4.75 -3.3,-8.84 -7.17,-12.37 -3.96,-3.44 -8.29,-5.47 -13.12,-5.91 -4.76,-0.44 -9.59,0.36 -14.42,2.49 -4.84,2.14 -9.17,5.36 -13.25,9.85 -3.84,4.32 -6.55,8.99 -8.09,14.05 -1.58,5.04 -1.83,9.9 -0.83,14.56 1,4.75 3.37,8.75 7.04,12.16 3.87,3.34 8.12,5.37 12.87,5.81 4.75,0.44 9.59,-0.36 14.42,-2.5zm-71.84 -49.52l119.39 -30.98c1.79,-0.73 3.08,-1.49 3.92,-2.39 1.33,-1.52 1.87,-3.31 1.54,-5.34 -0.46,-1.94 -1.21,-3.53 -2.46,-4.67 -1.71,-1.46 -3.88,-1.9 -6.58,-1.43l-119.39 31.07c-1.67,0.54 -3,1.31 -3.92,2.3 -1.34,1.53 -1.75,3.32 -1.42,5.35 0.42,2.03 1.17,3.62 2.34,4.66 1.62,1.45 3.87,1.99 6.58,1.43zm38.18 -52.21c-0.72,-0.72 -1.34,-1.44 -1.76,-2.24 -1.38,-2.1 -1.67,-4.61 -1,-7.52 0.96,-4.04 3.25,-7.99 6.92,-12.12 3.62,-3.95 7.25,-6.64 11.17,-7.99 3.84,-1.35 7.21,-0.82 10,1.68 2.79,2.58 3.71,5.81 2.83,9.76 -0.96,3.94 -3.25,7.99 -7,12.11 -1.96,2.16 -3.87,3.93 -5.92,5.31 -1.7,1.22 -3.37,2.15 -5.16,2.78 -3.84,1.45 -7.21,0.82 -10.08,-1.77zm18.87 12.73c4.83,-2.05 9.17,-5.27 13.08,-9.57 0.84,-0.9 1.59,-1.89 2.34,-2.8 2.71,-3.53 4.71,-7.3 6.04,-11.22 1.63,-4.96 1.96,-9.8 1.04,-14.55 -1,-4.76 -3.37,-8.85 -7.33,-12.38 -3.92,-3.54 -8.29,-5.48 -13.13,-5.92 -4.75,-0.53 -9.58,0.37 -14.33,2.5 -4.84,2.14 -9.17,5.47 -13.21,9.95 -3.88,4.22 -6.59,8.9 -8.17,13.85 -1.71,4.84 -1.96,9.51 -1.04,14.16l0.08 0.39c1,4.66 3.37,8.75 7.33,12.29 3.76,3.42 8.01,5.35 12.76,5.79 4.74,0.43 9.58,-0.36 14.54,-2.49z"/>
  <path class="fil6" d="M141.76 632.68l-8.91 17.08 -64.46 -33.6c4.05,-6.08 9.34,-11.11 15.84,-15.06 6.49,-3.99 17.4,-8.06 32.67,-12.26 12.31,-3.38 20.14,-5.97 23.45,-7.75 4.49,-2.48 7.71,-5.57 9.64,-9.29 2.16,-4.1 2.67,-7.83 1.63,-11.16 -1.05,-3.36 -3.53,-6.04 -7.41,-8.07 -3.85,-2.01 -7.5,-2.45 -10.96,-1.31 -3.48,1.12 -6.8,4.29 -9.94,9.47l-17.38 -11.39c6.36,-9.55 13.57,-15.02 21.64,-16.43 8.05,-1.4 16.41,0.14 25.04,4.64 9.46,4.92 15.59,11.38 18.33,19.28 2.75,7.92 2.16,15.69 -1.8,23.29 -2.26,4.32 -5.17,8.02 -8.76,11.13 -3.57,3.09 -8.17,5.89 -13.75,8.42 -3.71,1.7 -9.85,3.67 -18.43,5.98 -8.58,2.29 -14.08,3.93 -16.56,4.85 -2.44,0.95 -4.59,2 -6.41,3.15l36.53 19.03z"/>
  <path id="1" class="fil6" d="M226.85 575.72c9.28,4.85 14.83,11.96 16.61,21.32 2.15,11.1 -1.51,25.76 -11.01,43.95 -9.45,18.14 -19.4,29.55 -29.81,34.22 -8.61,3.85 -17.56,3.34 -26.84,-1.49 -9.36,-4.87 -15,-12.38 -16.98,-22.55 -1.98,-10.14 1.83,-24.42 11.43,-42.84 9.4,-18.07 19.32,-29.45 29.73,-34.12 8.61,-3.83 17.56,-3.34 26.87,1.51zm-7.95 15.25c-2.24,-1.14 -4.58,-1.48 -7.08,-0.96 -2.48,0.49 -5.15,2.32 -8.02,5.49 -3.74,4.09 -8.56,11.79 -14.43,23.04 -5.86,11.27 -9.32,19.3 -10.38,24.08 -1.05,4.82 -1.09,8.37 -0.09,10.67 1,2.3 2.61,4.02 4.82,5.16 2.24,1.17 4.59,1.51 7.08,0.99 2.48,-0.5 5.16,-2.35 8.02,-5.52 3.72,-4.05 8.51,-11.69 14.38,-22.96 5.87,-11.25 9.33,-19.28 10.4,-24.09 1.06,-4.81 1.09,-8.37 0.09,-10.69 -0.97,-2.3 -2.58,-4.04 -4.79,-5.21z"/>
  <path class="fil7" d="M585.27 793.74l-18.52 0 0 -26.6c0,-2.15 -0.33,-3.97 -1.01,-5.5 -0.99,-2.14 -2.49,-3.21 -4.52,-3.21 -1.29,0 -2.27,0 -2.95,0 -2.14,0.38 -3.77,1.45 -4.89,3.24 -1.11,1.78 -1.66,3.88 -1.66,6.3l0 12.8 4.89 0 0 12.97 -18.53 0 0 -25.5c0,-2.6 -0.31,-4.64 -0.92,-6.1 -0.86,-2.09 -2.31,-3.33 -4.34,-3.71 -0.37,0 -0.78,-0.02 -1.24,-0.05 -0.45,-0.04 -0.94,-0.02 -1.42,0.05 -2.23,0.25 -3.89,1.31 -4.99,3.16 -1.11,1.87 -1.66,4.2 -1.66,6.96l0 12.22 4.99 0 0 12.97 -23.33 0 0 -12.97 4.79 0 0 -21.78 -4.79 0 0 -12.98 17.05 0 0 6.45c1.79,-2.59 3.73,-4.51 5.86,-5.78 2.11,-1.26 4.32,-1.89 6.59,-1.89 2.63,0 5.2,0.82 7.65,2.5 2.45,1.67 4.51,3.96 6.18,6.86 1.66,-2.98 3.82,-5.3 6.5,-6.93 2.67,-1.62 5.54,-2.43 8.61,-2.43 4.79,0 9.06,1.87 12.82,5.6 1.23,1.84 2.16,3.89 2.81,6.16 0.64,2.29 0.97,4.63 0.97,7.03l0 17.19 5.06 0 0 12.97z"/>
  <path class="fil7" d="M649.13 770.33c0,6.84 -2.4,12.57 -7.22,17.18 -4.81,4.64 -10.42,6.94 -16.81,6.94 -2.44,0 -4.94,-0.42 -7.48,-1.26 -2.53,-0.85 -4.92,-2.02 -7.17,-3.52l0 7.81 5.35 0 0 13.58 -25.04 0 0 -13.58 5.14 0 0 -39.07 -5.14 0 0 -13.39 19.69 0 0 5.77c3.57,-4.11 8.12,-6.16 13.64,-6.16 6.93,0 12.91,2.74 17.93,8.21 4.74,5.21 7.11,11.04 7.11,17.49zm-17.31 6.16c1.5,-1.94 2.27,-4.21 2.27,-6.81 0,-3.75 -1.53,-6.77 -4.56,-9.03 -1.97,-1.49 -4.28,-2.24 -6.91,-2.24 -3.83,0 -6.89,1.49 -9.21,4.48 -1.51,1.93 -2.27,4.17 -2.27,6.7 0,3.77 1.53,6.78 4.56,9.05 2.11,1.55 4.45,2.32 7.01,2.32 3.76,0 6.79,-1.48 9.11,-4.47z"/>
  <polygon class="fil7" points="679.27,794.79 652.44,794.79 652.44,780.04 658.29,780.04 658.29,737.84 652.75,737.84 652.75,723.09 673.84,723.09 673.84,780.04 679.27,780.04 "/>
  <path class="fil7" d="M746.52 793.56l-21.2 0 0 -4.07c-2.15,1.82 -4.44,3.16 -6.87,4.02 -2.43,0.85 -5.04,1.28 -7.82,1.28 -3.95,0 -7.82,-0.93 -11.6,-2.8 -3.78,-1.86 -7,-4.43 -9.63,-7.71 -1.61,-2.08 -2.78,-4.31 -3.55,-6.67 -0.76,-2.37 -1.15,-4.79 -1.15,-7.25 0,-7.14 2.71,-13.22 8.13,-18.27 2.29,-2.27 5.23,-4.09 8.79,-5.48 3.59,-1.4 7.07,-2.09 10.47,-2.09 1.74,0 3.44,0.25 5.1,0.76 3.13,1.06 5.85,2.8 8.13,5.2l0 -4.64 21.2 0 0 12.98 -5.54 0 0 21.77 5.54 0 0 12.97zm-21.2 -23.86c0,-3 -1.26,-5.56 -3.76,-7.69 -2.5,-2.13 -5.5,-3.19 -8.97,-3.19 -3.35,0 -6.2,1.12 -8.57,3.38 -2.36,2.25 -3.55,4.93 -3.55,8.06 0,3.07 1.26,5.64 3.77,7.69 2.5,2.07 5.5,3.1 8.97,3.1 3.34,0 6.19,-1.13 8.57,-3.38 2.35,-2.25 3.54,-4.9 3.54,-7.97z"/>
  <path class="fil7" d="M794.23 785.69c-1.81,3.16 -4.24,5.47 -7.31,6.92 -3.05,1.45 -6.58,2.18 -10.54,2.18 -2.31,0 -4.9,-0.32 -7.84,-0.95l-5.32 -2.93 0 2.93 -11.69 0 0 -13.82 15.77 0c0.49,1.26 1.18,2.31 2.1,3.12 1.17,1.14 2.54,1.7 4.05,1.7 0.5,0 0.88,-0.03 1.15,-0.09 1.81,-0.39 2.96,-1.23 3.46,-2.56 0.27,-0.82 0.18,-1.6 -0.26,-2.37 -0.46,-0.76 -1.09,-1.5 -1.94,-2.27 -3.89,-1.07 -7.8,-2.17 -11.69,-3.31 -4.39,-1.46 -7.64,-3.31 -9.78,-5.58 -2.12,-2.27 -3.17,-4.99 -3.17,-8.15 0,-1.06 0.14,-2.13 0.42,-3.17 0.27,-1.04 0.65,-2.1 1.15,-3.16 1.59,-3.48 4.58,-6 8.97,-7.59 2.79,-1.01 5.68,-1.51 8.68,-1.51 2.15,0 4.18,0.3 6.1,0.9 1.92,0.61 3.6,1.57 5.06,2.89l0 -2.75 11.17 0 0 13.54 -14.93 0c-0.42,-1.08 -0.7,-1.74 -0.82,-1.99 -0.64,-1.07 -1.5,-1.69 -2.62,-1.85 -1.11,-0.15 -1.81,-0.24 -2.08,-0.24 -2.03,0 -3.27,0.85 -3.77,2.56 -0.2,0.69 -0.1,1.36 0.32,1.98 0.42,0.63 0.76,1.15 1.04,1.53 6.41,2.2 12.81,4.39 19.22,6.53 4.24,3.48 6.36,7.42 6.36,11.83 0,1.9 -0.42,3.79 -1.26,5.68z"/>
  <polygon class="fil8" points="508.61,797.94 582.33,797.94 582.33,811.05 508.61,811.05 "/>
  <path class="fil8 str0" d="M643.84 509.82c56.9,0 103.04,45.01 103.04,100.5 0,55.49 -46.14,100.5 -103.04,100.5 -56.9,0 -103.04,-45.01 -103.04,-100.5 0,-55.49 46.14,-100.5 103.04,-100.5z"/>
  <polygon class="fil9" points="636.96,643.54 591.19,643.54 591.19,623.05 601.19,623.05 601.19,564.43 591.19,564.43 591.19,543.94 636.96,543.94 636.96,564.43 627.12,564.43 627.12,623.05 636.96,623.05 "/>
  <path class="fil9" d="M717.42 609.73c0,9.58 -3.5,17.85 -10.47,24.84 -6.97,6.99 -15.38,10.47 -25.27,10.47l-12.49 0 0 10.75 9.84 0 0 20.5 -45.76 0 0 -20.5 10 0 0 -58.62 -10 0 0 -20.49 50.27 0c9.56,0 17.62,3.17 24.12,9.5 6.5,6.33 9.76,14.19 9.76,23.55zm-25.93 0.92c0,-2.93 -1.01,-5.55 -3.04,-7.82 -2.02,-2.28 -4.39,-3.4 -7.1,-3.4l-12.16 0 0 23.47 12.16 -0.29c3.44,0 5.98,-1.12 7.65,-3.4 1.67,-2.28 2.49,-5.13 2.49,-8.56z"/>
  <polygon class="fil8" points="625.41,797.94 791.47,797.94 791.47,811.05 625.41,811.05 "/>
  <polygon class="fil8" points="466.2,722.28 500.4,722.28 500.4,735.99 491.96,735.99 491.96,798.12 501.06,798.12 501.06,811.19 466.42,811.19 466.42,797.48 473.53,797.48 473.53,736.42 466.2,736.42 "/>
  <path class="fil7" d="M585.27 793.74l-18.52 0 0 -26.6c0,-2.15 -0.33,-3.97 -1.01,-5.5 -0.99,-2.14 -2.49,-3.21 -4.52,-3.21 -1.29,0 -2.27,0 -2.95,0 -2.14,0.38 -3.77,1.45 -4.89,3.24 -1.11,1.78 -1.66,3.88 -1.66,6.3l0 12.8 4.89 0 0 12.97 -18.53 0 0 -25.5c0,-2.6 -0.31,-4.64 -0.92,-6.1 -0.86,-2.09 -2.31,-3.33 -4.34,-3.71 -0.37,0 -0.78,-0.02 -1.24,-0.05 -0.45,-0.04 -0.94,-0.02 -1.42,0.05 -2.23,0.25 -3.89,1.31 -4.99,3.16 -1.11,1.87 -1.66,4.2 -1.66,6.96l0 12.22 4.99 0 0 12.97 -23.33 0 0 -12.97 4.79 0 0 -21.78 -4.79 0 0 -12.98 17.05 0 0 6.45c1.79,-2.59 3.73,-4.51 5.86,-5.78 2.11,-1.26 4.32,-1.89 6.59,-1.89 2.63,0 5.2,0.82 7.65,2.5 2.45,1.67 4.51,3.96 6.18,6.86 1.66,-2.98 3.82,-5.3 6.5,-6.93 2.67,-1.62 5.54,-2.43 8.61,-2.43 4.79,0 9.06,1.87 12.82,5.6 1.23,1.84 2.16,3.89 2.81,6.16 0.64,2.29 0.97,4.63 0.97,7.03l0 17.19 5.06 0 0 12.97z"/>
  <path class="fil7" d="M649.13 770.33c0,6.84 -2.4,12.57 -7.22,17.18 -4.81,4.64 -10.42,6.94 -16.81,6.94 -2.44,0 -4.94,-0.42 -7.48,-1.26 -2.53,-0.85 -4.92,-2.02 -7.17,-3.52l0 7.81 5.35 0 0 13.58 -25.04 0 0 -13.58 5.14 0 0 -39.07 -5.14 0 0 -13.39 19.69 0 0 5.77c3.57,-4.11 8.12,-6.16 13.64,-6.16 6.93,0 12.91,2.74 17.93,8.21 4.74,5.21 7.11,11.04 7.11,17.49zm-17.31 6.16c1.5,-1.94 2.27,-4.21 2.27,-6.81 0,-3.75 -1.53,-6.77 -4.56,-9.03 -1.97,-1.49 -4.28,-2.24 -6.91,-2.24 -3.83,0 -6.89,1.49 -9.21,4.48 -1.51,1.93 -2.27,4.17 -2.27,6.7 0,3.77 1.53,6.78 4.56,9.05 2.11,1.55 4.45,2.32 7.01,2.32 3.76,0 6.79,-1.48 9.11,-4.47z"/>
  <polygon class="fil7" points="679.27,794.79 652.44,794.79 652.44,780.04 658.29,780.04 658.29,737.84 652.75,737.84 652.75,723.09 673.84,723.09 673.84,780.04 679.27,780.04 "/>
  <path class="fil7" d="M746.52 793.56l-21.2 0 0 -4.07c-2.15,1.82 -4.44,3.16 -6.87,4.02 -2.43,0.85 -5.04,1.28 -7.82,1.28 -3.95,0 -7.82,-0.93 -11.6,-2.8 -3.78,-1.86 -7,-4.43 -9.63,-7.71 -1.61,-2.08 -2.78,-4.31 -3.55,-6.67 -0.76,-2.37 -1.15,-4.79 -1.15,-7.25 0,-7.14 2.71,-13.22 8.13,-18.27 2.29,-2.27 5.23,-4.09 8.79,-5.48 3.59,-1.4 7.07,-2.09 10.47,-2.09 1.74,0 3.44,0.25 5.1,0.76 3.13,1.06 5.85,2.8 8.13,5.2l0 -4.64 21.2 0 0 12.98 -5.54 0 0 21.77 5.54 0 0 12.97zm-21.2 -23.86c0,-3 -1.26,-5.56 -3.76,-7.69 -2.5,-2.13 -5.5,-3.19 -8.97,-3.19 -3.35,0 -6.2,1.12 -8.57,3.38 -2.36,2.25 -3.55,4.93 -3.55,8.06 0,3.07 1.26,5.64 3.77,7.69 2.5,2.07 5.5,3.1 8.97,3.1 3.34,0 6.19,-1.13 8.57,-3.38 2.35,-2.25 3.54,-4.9 3.54,-7.97z"/>
  <path class="fil7" d="M794.23 785.69c-1.81,3.16 -4.24,5.47 -7.31,6.92 -3.05,1.45 -6.58,2.18 -10.54,2.18 -2.31,0 -4.9,-0.32 -7.84,-0.95l-5.32 -2.93 0 2.93 -11.69 0 0 -13.82 15.77 0c0.49,1.26 1.18,2.31 2.1,3.12 1.17,1.14 2.54,1.7 4.05,1.7 0.5,0 0.88,-0.03 1.15,-0.09 1.81,-0.39 2.96,-1.23 3.46,-2.56 0.27,-0.82 0.18,-1.6 -0.26,-2.37 -0.46,-0.76 -1.09,-1.5 -1.94,-2.27 -3.89,-1.07 -7.8,-2.17 -11.69,-3.31 -4.39,-1.46 -7.64,-3.31 -9.78,-5.58 -2.12,-2.27 -3.17,-4.99 -3.17,-8.15 0,-1.06 0.14,-2.13 0.42,-3.17 0.27,-1.04 0.65,-2.1 1.15,-3.16 1.59,-3.48 4.58,-6 8.97,-7.59 2.79,-1.01 5.68,-1.51 8.68,-1.51 2.15,0 4.18,0.3 6.1,0.9 1.92,0.61 3.6,1.57 5.06,2.89l0 -2.75 11.17 0 0 13.54 -14.93 0c-0.42,-1.08 -0.7,-1.74 -0.82,-1.99 -0.64,-1.07 -1.5,-1.69 -2.62,-1.85 -1.11,-0.15 -1.81,-0.24 -2.08,-0.24 -2.03,0 -3.27,0.85 -3.77,2.56 -0.2,0.69 -0.1,1.36 0.32,1.98 0.42,0.63 0.76,1.15 1.04,1.53 6.41,2.2 12.81,4.39 19.22,6.53 4.24,3.48 6.36,7.42 6.36,11.83 0,1.9 -0.42,3.79 -1.26,5.68z"/>
  <polygon class="fil8" points="508.61,797.94 582.33,797.94 582.33,811.05 508.61,811.05 "/>
  <path class="fil8 str0" d="M643.84 509.82c56.9,0 103.04,45.01 103.04,100.5 0,55.49 -46.14,100.5 -103.04,100.5 -56.9,0 -103.04,-45.01 -103.04,-100.5 0,-55.49 46.14,-100.5 103.04,-100.5z"/>
  <polygon class="fil9" points="636.96,643.54 591.19,643.54 591.19,623.05 601.19,623.05 601.19,564.43 591.19,564.43 591.19,543.94 636.96,543.94 636.96,564.43 627.12,564.43 627.12,623.05 636.96,623.05 "/>
  <path class="fil9" d="M717.42 609.73c0,9.58 -3.5,17.85 -10.47,24.84 -6.97,6.99 -15.38,10.47 -25.27,10.47l-12.49 0 0 10.75 9.84 0 0 20.5 -45.76 0 0 -20.5 10 0 0 -58.62 -10 0 0 -20.49 50.27 0c9.56,0 17.62,3.17 24.12,9.5 6.5,6.33 9.76,14.19 9.76,23.55zm-25.93 0.92c0,-2.93 -1.01,-5.55 -3.04,-7.82 -2.02,-2.28 -4.39,-3.4 -7.1,-3.4l-12.16 0 0 23.47 12.16 -0.29c3.44,0 5.98,-1.12 7.65,-3.4 1.67,-2.28 2.49,-5.13 2.49,-8.56z"/>
  <polygon class="fil8" points="625.41,797.94 791.47,797.94 791.47,811.05 625.41,811.05 "/>
  <polygon class="fil8" points="466.2,722.28 500.4,722.28 500.4,735.99 491.96,735.99 491.96,798.12 501.06,798.12 501.06,811.19 466.42,811.19 466.42,797.48 473.53,797.48 473.53,736.42 466.2,736.42 "/>
 </g>
</svg>
